<svg width="98" height="98" viewBox="0 0 98 98" fill="none" xmlns="http://www.w3.org/2000/svg">
<circle cx="49" cy="49" r="49" fill="#FC4539"/>
<circle cx="48.5" cy="49.5" r="36.5" fill="white"/>
<path d="M66.5459 65.4508L33.5492 32.4542L31 34.9855L35.0752 39.0607C33.1253 41.9906 32.0882 45.433 32.0951 48.9525C32.0951 58.8622 40.1378 66.9049 50.0475 66.9049C53.7098 66.9049 57.1029 65.8098 59.9394 63.9248L64.0146 68L66.5459 65.4508ZM47.5163 57.2106L39.9044 49.5988L42.4357 47.0675L47.5163 52.148L47.8394 51.8249L50.3707 54.3562L47.5163 57.2106ZM52.902 46.7264L40.1557 33.9801C43.0857 32.0302 46.5281 30.9931 50.0475 31C59.9573 31 68 39.0427 68 48.9525C68 52.6148 66.9049 56.0078 65.0199 58.8443L55.4333 49.2577L60.1907 44.5003L57.6594 41.969L52.902 46.7264Z" fill="#FC4539"/>
</svg>
