<svg width="98" height="98" viewBox="0 0 98 98" fill="none" xmlns="http://www.w3.org/2000/svg">
<circle cx="49" cy="49" r="49" fill="#85C237"/>
<circle cx="48.5" cy="49.5" r="36.5" fill="white"/>
<path d="M50.7493 33.4427L63.6688 41.1703C64.1518 41.4654 64.5274 41.8679 64.7957 42.3777C65.0641 42.8875 65.1982 43.4242 65.1982 43.9876V61.4552C65.1982 62.3406 64.8827 63.0989 64.2516 63.73C63.6205 64.3611 62.8628 64.6761 61.9784 64.675H36.2198C35.3344 64.675 34.5761 64.3595 33.945 63.7284C33.3139 63.0973 32.9989 62.3396 33 61.4552V43.9876C33 43.4242 33.1342 42.8875 33.4025 42.3777C33.6708 41.8679 34.0464 41.4654 34.5294 41.1703L47.449 33.4427C47.9588 33.1476 48.5088 33 49.0991 33C49.6894 33 50.2395 33.1476 50.7493 33.4427ZM49.0991 51.2322L61.6564 43.7462L49.0991 36.2601L36.5418 43.7462L49.0991 51.2322Z" fill="#85C237"/>
</svg>
