<svg width="179" height="36" viewBox="0 0 179 36" fill="none" xmlns="http://www.w3.org/2000/svg">
<path d="M69.3129 30.4821C63.5477 30.4821 58.9451 26.3514 58.9451 19.6897C58.9451 13.425 62.8748 8.89814 69.3129 8.89814C72.0759 8.89556 74.7273 9.98158 76.686 11.9182L80.3512 8.27656C78.9115 6.82076 77.1931 5.66606 75.2974 4.8805C73.4016 4.09494 71.3668 3.69441 69.3129 3.70251C60.151 3.70251 53.627 10.3179 53.627 19.6905C53.627 29.461 60.6848 35.6785 69.3129 35.6785C71.3626 35.6845 73.3931 35.2873 75.2876 34.5098C77.1821 33.7323 78.903 32.5899 80.3512 31.1484L76.686 27.462C74.7273 29.3986 72.0759 30.4846 69.3129 30.4821ZM110.293 4.14592H103.768L90.9417 19.8231V4.14592H85.7103V35.2335H90.9384V26.7021L93.8857 23.416L103.539 35.2294H110.376L97.3757 19.9557L110.29 4.14592H110.293ZM126.783 4.14592H116.369V9.34155L121.33 17.1138H116.369V35.2335H121.598V22.2664H126.782C126.782 22.2664 137.194 22.2664 137.194 13.2061C137.194 4.14592 126.783 4.14592 126.783 4.14592ZM127.452 17.0691L122.58 9.33993H126.782C126.782 9.33993 132.01 9.33993 132.01 13.2029C132.01 16.2254 128.838 16.8917 127.452 17.0691ZM142.556 35.2335H147.785V4.14836H142.556V35.2335ZM172.409 4.14836H154.087V8.90059H160.66V35.2335H165.844V8.89733H172.414V4.14592L172.409 4.14836Z" fill="white"/>
<path d="M38.6109 26.7955C40.9089 26.7955 43.1552 26.1184 45.0659 24.8496C46.9765 23.5809 48.4657 21.7776 49.3452 19.6678C50.2246 17.558 50.4547 15.2364 50.0065 12.9966C49.5582 10.7568 48.4517 8.69945 46.8269 7.0846C45.2021 5.46975 43.1319 4.36998 40.8781 3.92436C38.6244 3.47874 36.2883 3.70729 34.1652 4.58109C32.0421 5.4549 30.2275 6.93473 28.9507 8.83345C27.6739 10.7322 26.9923 12.9645 26.9922 15.2482C27.001 18.3079 28.228 21.2398 30.405 23.4034C32.582 25.567 35.5321 26.7865 38.6109 26.7955ZM38.6109 8.85328C39.8838 8.85328 41.128 9.22838 42.1864 9.93115C43.2447 10.6339 44.0696 11.6328 44.5567 12.8014C45.0438 13.9701 45.1713 15.2561 44.9229 16.4967C44.6746 17.7373 44.0617 18.8769 43.1616 19.7714C42.2616 20.6659 41.1149 21.275 39.8665 21.5218C38.6181 21.7685 37.3241 21.6419 36.1481 21.1578C34.9721 20.6737 33.967 19.854 33.2599 18.8022C32.5527 17.7505 32.1753 16.5139 32.1753 15.249C32.1717 14.4123 32.3341 13.5831 32.6531 12.8089C32.9722 12.0346 33.4417 11.3304 34.0347 10.7365C34.6277 10.1426 35.3327 9.67069 36.1094 9.34769C36.886 9.0247 37.7191 8.85697 38.561 8.85409L38.6109 8.85328ZM48.797 30.0817H28.1547V35.2334H48.8019V30.0817H48.797Z" fill="white"/>
<path d="M24.5785 4.14502H18.0536L5.22893 19.8238V4.14502H0V35.2318H5.22893V26.7036L8.17618 23.4175L17.8293 35.2309H24.6669L11.663 19.9573L24.576 4.14502H24.5785Z" fill="white"/>
<path d="M177.621 1V0.368652H177.385V0.28418H177.952V0.368652H177.715V1H177.621ZM178.047 1V0.28418H178.189L178.359 0.791016C178.375 0.838216 178.386 0.873535 178.393 0.896973C178.401 0.870931 178.414 0.832682 178.431 0.782227L178.603 0.28418H178.73V1H178.639V0.400879L178.431 1H178.345L178.138 0.390625V1H178.047Z" fill="white"/>
</svg>
